<svg xmlns="http://www.w3.org/2000/svg" xmlns:xlink="http://www.w3.org/1999/xlink" version="1.1" width="1000" height="1000" viewBox="0 0 1000 1000" xml:space="preserve">
<desc>Created with Fabric.js 3.5.0</desc>
<defs>
</defs>
<rect x="0" y="0" width="100%" height="100%" fill="rgba(255,255,255,0)"/>
<g transform="matrix(22.8392 0 0 22.8392 500.0004 500.0003)" id="911774">
<path style="stroke: none; stroke-width: 0; stroke-dasharray: none; stroke-linecap: butt; stroke-dashoffset: 0; stroke-linejoin: miter; stroke-miterlimit: 4; is-custom-font: none; font-file-url: none; fill: rgb(42,122,228); fill-rule: nonzero; opacity: 1;" transform=" translate(-24.9984, -25.5)" d="M 44.9556 34.0208 L 42.6849 18.0625 C 42.1016 13.9583 38.581 10.9167 34.4354 10.9167 H 15.5614 C 11.4158 10.9167 7.8952 13.9583 7.3119 18.0625 L 5.04119 34.0208 C 4.58288 37.2292 7.06191 40.0833 10.2909 40.0833 C 11.7075 40.0833 13.0407 39.5208 14.0407 38.5208 L 18.7487 33.8333 H 31.248 L 35.9353 38.5208 C 36.9352 39.5208 38.2893 40.0833 39.6851 40.0833 C 42.9349 40.0833 45.4139 37.2292 44.9556 34.0208 Z M 22.9152 23.4167 H 18.7487 V 27.5833 H 16.6655 V 23.4167 H 12.4991 V 21.3333 H 16.6655 V 17.1667 H 18.7487 V 21.3333 H 22.9152 V 23.4167 Z M 31.248 21.3333 C 30.1023 21.3333 29.1648 20.3958 29.1648 19.25 C 29.1648 18.1042 30.1023 17.1667 31.248 17.1667 C 32.3938 17.1667 33.3313 18.1042 33.3313 19.25 C 33.3313 20.3958 32.3938 21.3333 31.248 21.3333 Z M 35.4145 27.5833 C 34.2687 27.5833 33.3313 26.6458 33.3313 25.5 C 33.3313 24.3542 34.2687 23.4167 35.4145 23.4167 C 36.5602 23.4167 37.4977 24.3542 37.4977 25.5 C 37.4977 26.6458 36.5602 27.5833 35.4145 27.5833 Z" stroke-linecap="round"/>
</g>
</svg>